# xmcd CD database file
#
# Track frame offsets:
#	182
#	19107
#	39192
#	55910
#	71897
#	86510
#	102612
#	118367
#	139850
#	157972
#	173492
#	189180
#	202167
#	219800
#	235050
#	250322
#	278005
#
# Disc length: 4033 seconds
#
# Revision: 5
# Processed by: cddbd v1.5.2PL0 Copyright (c) Steve Scherf et al.
# Submitted via: CDex 1.79
#
DISCID=ec0fbf11
DTITLE=KajaGooGoo - The Very Best Of KajaGooGoo
DYEAR=1996
DGENRE=Pop
TTITLE0=Big Apple
TTITLE1=Charm Of A Gun
TTITLE2=Too Shy
TTITLE3=The Lions Mouth
TTITLE4=KajaGooGoo
TTITLE5=Oh To Be Ah
TTITLE6=Limahl - Never Ending Story
TTITLE7=The Power To Forgive
TTITLE8=Turn Your Back On Me
TTITLE9=White Feathers
TTITLE10=Do I
TTITLE11=Lies And Promises
TTITLE12=Limahl - Only For Love
TTITLE13=Hang On Now
TTITLE14=Shouldn't Do That
TTITLE15=Big Apple (12'' Extended Version)
TTITLE16=Too Shy (12'' Extended Version)
EXTD=YEAR: 1996
EXTT0=
EXTT1=
EXTT2=
EXTT3=
EXTT4=
EXTT5=
EXTT6=
EXTT7=
EXTT8=
EXTT9=
EXTT10=
EXTT11=
EXTT12=
EXTT13=
EXTT14=
EXTT15=
EXTT16=
PLAYORDER=
